<svg xmlns="http://www.w3.org/2000/svg" version="1" viewBox="0 0 700 700"><path d="M324.5 64.7c-14.9 8.6-29 16.7-31.5 18.1-2.5 1.4-9.9 5.6-16.5 9.5-6.6 3.8-14 8.1-16.5 9.5-2.5 1.4-6.1 3.4-8 4.5-1.9 1.1-5.7 3.3-8.5 4.9-2.7 1.6-6.6 3.8-8.5 4.9-7.3 4.3-57.7 33.3-61.9 35.7-2.4 1.3-10.4 6-17.8 10.3-7.5 4.3-13.6 7.9-13.8 7.9-.1 0-5.4 3-11.6 6.6-6.3 3.7-13.2 7.7-15.4 8.9-2.2 1.3-8 4.7-13 7.5-4.9 2.9-9.9 5.8-11 6.4-2 1.2-23.2 13.3-26.3 15.1-.9.5-15.3 8.8-32 18.4L2 250.3v201.8c0 111.1.2 201.9.5 201.9.4 0 40.3-22.7 45.5-25.9.8-.5 7.4-4.3 14.5-8.4 7.2-4.2 17.1-9.9 22.1-12.9l9-5.3V452.7c-.1-98.1.2-149.2.9-149.7.9-.7 25.9-15.3 36.5-21.2 1.9-1.1 7.6-4.4 12.5-7.3 5-2.9 11-6.3 13.5-7.7 4.2-2.4 30-17.2 77-44.3 10.7-6.2 21.1-12.1 23-13.2 1.9-1.1 8-4.6 13.5-7.8 8.7-5 34.7-20 47-27 2.2-1.2 10.7-6.1 18.9-10.8 8.2-4.7 15.2-8.5 15.5-8.3 2 1.1 29.4 16.8 32.2 18.5 1.9 1.1 5 2.8 6.9 3.9 6.7 3.7 83.6 47.5 96 54.7 6.9 4 33 19.1 58 33.5 25 14.4 48.4 27.9 52 30 3.6 2.1 7.7 4.4 9.2 5.1 1.4.6 2.8 1.9 3 2.8.2.9.4 40.4.3 87.8 0 76.4.2 86 1.5 85.3.8-.4 5.5-3.1 10.3-5.9 4.9-2.8 9-5.1 9.2-5.1.4 0 27.6-15.8 49.7-28.8l19.8-11.7v-176l-9.7-5.5c-14.4-8.2-17.4-9.9-34.8-20-8.8-5.1-17.6-10.1-19.5-11.2-9-5.2-62.4-35.9-119.6-68.9-81-46.6-102.1-58.8-106.4-61.2-1.9-1-6-3.4-9-5.2-3-1.8-7.5-4.4-10-5.8-2.5-1.3-11.7-6.6-20.5-11.7-8.8-5-16.7-9.6-17.5-10-1.1-.6-9.5 3.8-28.5 14.7z"/><path d="M327.5 273.7c-12.6 7.4-25 14.7-27.5 16.1-2.5 1.4-13.1 7.6-23.6 13.8-10.5 6.2-20.8 12.2-23 13.4-4 2.3-54.2 31.2-60.4 34.8-1.9 1.1-5.5 3.2-8 4.5-2.5 1.4-8.6 4.9-13.5 7.8l-9.1 5.4.1 45c0 28.5.4 44.9 1 44.8.6-.1 10.7-5.7 22.5-12.4s27.8-15.8 35.5-20.2c7.7-4.4 15.8-9 18-10.2 2.2-1.3 13.9-8 26-15s24-13.9 26.5-15.3c2.5-1.4 7.8-4.5 11.9-6.9 4-2.4 7.6-4.2 7.8-3.9.3.3.5 62.8.5 139s.2 138.6.4 138.6 14.2-8 31.2-17.7c16.9-9.7 33.9-19.4 37.7-21.6 3.9-2.2 7.7-4.5 8.5-5.3 1.3-1.1 1.5-15.1 1.4-116.1 0-63.1.2-115.3.4-116 .2-.8 2-.2 5.1 1.8 2.7 1.6 5.3 2.9 6 2.9.6 0 1.1.4 1.1 1 0 .5.4 1 .9 1s14.3 7.7 30.8 17.2c16.4 9.4 31.8 18.2 34.3 19.6 2.5 1.4 6.2 3.6 8.2 4.9 2.1 1.2 3.9 2.3 4.2 2.3.2 0 6.5 3.6 14.1 8s13.8 8 14 8c.1 0 6.8 3.8 14.9 8.5 8.1 4.7 14.9 8.5 15 8.5.2 0 .3-20.4.4-45.3v-45.4l-16.1-9.4c-8.8-5.2-18.1-10.5-20.6-11.9-2.5-1.4-7.7-4.4-11.6-6.7-3.8-2.3-27.7-16.1-53-30.8s-50-29.1-55-32c-4.9-2.9-14.1-8.2-20.3-11.9-6.3-3.6-11.9-6.6-12.5-6.5-.7 0-11.5 6.1-24.2 13.6z"/></svg>