<?xml version="1.0" standalone="no"?>
<!DOCTYPE svg PUBLIC "-//W3C//DTD SVG 20010904//EN"
 "http://www.w3.org/TR/2001/REC-SVG-20010904/DTD/svg10.dtd">
<svg version="1.0" xmlns="http://www.w3.org/2000/svg"
 width="700.000000pt" height="700.000000pt" viewBox="0 0 700.000000 700.000000"
 preserveAspectRatio="xMidYMid meet">
<metadata>
Created by potrace 1.11, written by Peter Selinger 2001-2013
</metadata>
<g transform="translate(0.000000,700.000000) scale(0.100000,-0.100000)"
fill="#000000" stroke="none">
<path d="M3245 6353 c-149 -86 -290 -167 -315 -181 -25 -14 -99 -56 -165 -95
-66 -38 -140 -81 -165 -95 -25 -14 -61 -34 -80 -45 -19 -11 -57 -33 -85 -49
-27 -16 -66 -38 -85 -49 -73 -43 -577 -333 -619 -357 -24 -13 -104 -60 -178
-103 -75 -43 -136 -79 -138 -79 -1 0 -54 -30 -116 -66 -63 -37 -132 -77 -154
-89 -22 -13 -80 -47 -130 -75 -49 -29 -99 -58 -110 -64 -20 -12 -232 -133
-263 -151 -9 -5 -153 -88 -320 -184 l-302 -174 0 -2018 c0 -1111 2 -2019 5
-2019 4 0 403 227 455 259 8 5 74 43 145 84 72 42 171 99 221 129 l90 53 0
1488 c-1 981 2 1492 9 1497 9 7 259 153 365 212 19 11 76 44 125 73 50 29 110
63 135 77 42 24 300 172 770 443 107 62 211 121 230 132 19 11 80 46 135 78
87 50 347 200 470 270 22 12 107 61 189 108 82 47 152 85 155 83 20 -11 294
-168 322 -185 19 -11 50 -28 69 -39 67 -37 836 -475 960 -547 69 -40 330 -191
580 -335 250 -144 484 -279 520 -300 36 -21 77 -44 92 -51 14 -6 28 -19 30
-28 2 -9 4 -404 3 -878 0 -764 2 -860 15 -853 8 4 55 31 103 59 49 28 90 51
92 51 4 0 276 158 497 288 l198 117 0 880 0 880 -97 55 c-144 82 -174 99 -348
200 -88 51 -176 101 -195 112 -90 52 -624 359 -1196 689 -810 466 -1021 588
-1064 612 -19 10 -60 34 -90 52 -30 18 -75 44 -100 58 -25 13 -117 66 -205
117 -88 50 -167 96 -175 100 -11 6 -95 -38 -285 -147z"/>
<path d="M3275 4263 c-126 -74 -250 -147 -275 -161 -25 -14 -131 -76 -236
-138 -105 -62 -208 -122 -230 -134 -40 -23 -542 -312 -604 -348 -19 -11 -55
-32 -80 -45 -25 -14 -86 -49 -135 -78 l-91 -54 1 -450 c0 -285 4 -449 10 -448
6 1 107 57 225 124 118 67 278 158 355 202 77 44 158 90 180 102 22 13 139 80
260 150 121 70 240 139 265 153 25 14 78 45 119 69 40 24 76 42 78 39 3 -3 5
-628 5 -1390 0 -762 2 -1386 4 -1386 2 0 142 80 312 177 169 97 339 194 377
216 39 22 77 45 85 53 13 11 15 151 14 1161 0 631 2 1153 4 1160 2 8 20 2 51
-18 27 -16 53 -29 60 -29 6 0 11 -4 11 -10 0 -5 4 -10 9 -10 5 0 143 -77 308
-172 164 -94 318 -182 343 -196 25 -14 62 -36 82 -49 21 -12 39 -23 42 -23 2
0 65 -36 141 -80 76 -44 138 -80 140 -80 1 0 68 -38 149 -85 81 -47 149 -85
150 -85 2 0 3 204 4 453 l0 454 -161 94 c-88 52 -181 105 -206 119 -25 14 -77
44 -116 67 -38 23 -277 161 -530 308 -253 147 -500 291 -550 320 -49 29 -141
82 -203 119 -63 36 -119 66 -125 65 -7 0 -115 -61 -242 -136z"/>
</g>
</svg>
